<mxfile host="app.diagrams.net" modified="2024-03-25T22:34:47.947Z" agent="Mozilla/5.0 (Macintosh; Intel Mac OS X 10_15_7) AppleWebKit/605.1.15 (KHTML, like Gecko) Version/17.4 Safari/605.1.15" etag="pdZh__0oKaL_j3KfZJca" version="24.1.0" type="device">
  <diagram name="Page-1" id="LSSOiQZ-ffzzaAWGbvux">
    <mxGraphModel dx="2322" dy="1220" grid="0" gridSize="10" guides="1" tooltips="1" connect="1" arrows="1" fold="1" page="0" pageScale="1" pageWidth="827" pageHeight="1169" math="0" shadow="0">
      <root>
        <mxCell id="0" />
        <mxCell id="1" parent="0" />
        <mxCell id="93wJ_rC8UFQtwwrExq1X-263" value="Подписка" style="shape=umlActor;verticalLabelPosition=bottom;verticalAlign=top;html=1;" vertex="1" parent="1">
          <mxGeometry x="-880" y="-312" width="30" height="60" as="geometry" />
        </mxCell>
        <mxCell id="93wJ_rC8UFQtwwrExq1X-266" value="Пользователь" style="shape=umlActor;verticalLabelPosition=bottom;verticalAlign=top;html=1;" vertex="1" parent="1">
          <mxGeometry x="-838" y="-14" width="30" height="60" as="geometry" />
        </mxCell>
        <mxCell id="93wJ_rC8UFQtwwrExq1X-267" value="Онлайн-кинотеатр" style="shape=umlActor;verticalLabelPosition=bottom;verticalAlign=top;html=1;" vertex="1" parent="1">
          <mxGeometry x="-578" y="-317" width="30" height="60" as="geometry" />
        </mxCell>
        <mxCell id="93wJ_rC8UFQtwwrExq1X-268" value="Каталог" style="shape=umlActor;verticalLabelPosition=bottom;verticalAlign=top;html=1;" vertex="1" parent="1">
          <mxGeometry x="-313" y="-191" width="30" height="60" as="geometry" />
        </mxCell>
        <mxCell id="93wJ_rC8UFQtwwrExq1X-269" value="Администратор" style="shape=umlActor;verticalLabelPosition=bottom;verticalAlign=top;html=1;" vertex="1" parent="1">
          <mxGeometry x="-176" y="-388" width="30" height="60" as="geometry" />
        </mxCell>
        <mxCell id="93wJ_rC8UFQtwwrExq1X-270" value="Рекомендательный сервис" style="shape=umlActor;verticalLabelPosition=bottom;verticalAlign=top;html=1;" vertex="1" parent="1">
          <mxGeometry x="-313" y="-14" width="30" height="60" as="geometry" />
        </mxCell>
        <mxCell id="93wJ_rC8UFQtwwrExq1X-271" value="оформить подписку" style="ellipse;whiteSpace=wrap;html=1;" vertex="1" parent="1">
          <mxGeometry x="-1074" y="-228" width="140" height="70" as="geometry" />
        </mxCell>
        <mxCell id="93wJ_rC8UFQtwwrExq1X-273" style="edgeStyle=none;curved=1;rounded=0;orthogonalLoop=1;jettySize=auto;html=1;entryX=0.5;entryY=0.5;entryDx=0;entryDy=0;entryPerimeter=0;fontSize=12;startSize=8;endSize=8;endArrow=none;endFill=0;" edge="1" parent="1" source="93wJ_rC8UFQtwwrExq1X-271" target="93wJ_rC8UFQtwwrExq1X-263">
          <mxGeometry relative="1" as="geometry" />
        </mxCell>
        <mxCell id="93wJ_rC8UFQtwwrExq1X-274" style="edgeStyle=none;curved=1;rounded=0;orthogonalLoop=1;jettySize=auto;html=1;entryX=0.5;entryY=0.5;entryDx=0;entryDy=0;entryPerimeter=0;fontSize=12;startSize=8;endSize=8;endArrow=none;endFill=0;" edge="1" parent="1" source="93wJ_rC8UFQtwwrExq1X-271" target="93wJ_rC8UFQtwwrExq1X-266">
          <mxGeometry relative="1" as="geometry" />
        </mxCell>
        <mxCell id="93wJ_rC8UFQtwwrExq1X-275" value="смотреть фильм" style="ellipse;whiteSpace=wrap;html=1;" vertex="1" parent="1">
          <mxGeometry x="-800" y="-228" width="140" height="70" as="geometry" />
        </mxCell>
        <mxCell id="93wJ_rC8UFQtwwrExq1X-276" style="edgeStyle=none;curved=1;rounded=0;orthogonalLoop=1;jettySize=auto;html=1;entryX=0.5;entryY=0.5;entryDx=0;entryDy=0;entryPerimeter=0;fontSize=12;startSize=8;endSize=8;endArrow=none;endFill=0;" edge="1" parent="1" source="93wJ_rC8UFQtwwrExq1X-275" target="93wJ_rC8UFQtwwrExq1X-267">
          <mxGeometry relative="1" as="geometry">
            <mxPoint x="-908" y="-102" as="targetPoint" />
          </mxGeometry>
        </mxCell>
        <mxCell id="93wJ_rC8UFQtwwrExq1X-277" style="edgeStyle=none;curved=1;rounded=0;orthogonalLoop=1;jettySize=auto;html=1;entryX=0.5;entryY=0.5;entryDx=0;entryDy=0;entryPerimeter=0;fontSize=12;startSize=8;endSize=8;endArrow=none;endFill=0;" edge="1" parent="1" source="93wJ_rC8UFQtwwrExq1X-275" target="93wJ_rC8UFQtwwrExq1X-266">
          <mxGeometry relative="1" as="geometry">
            <mxPoint x="-905" y="146" as="targetPoint" />
          </mxGeometry>
        </mxCell>
        <mxCell id="93wJ_rC8UFQtwwrExq1X-278" value="удалить подписку" style="ellipse;whiteSpace=wrap;html=1;" vertex="1" parent="1">
          <mxGeometry x="-940" y="-173" width="140" height="70" as="geometry" />
        </mxCell>
        <mxCell id="93wJ_rC8UFQtwwrExq1X-280" style="edgeStyle=none;curved=1;rounded=0;orthogonalLoop=1;jettySize=auto;html=1;entryX=0.5;entryY=0.5;entryDx=0;entryDy=0;entryPerimeter=0;fontSize=12;startSize=8;endSize=8;endArrow=none;endFill=0;" edge="1" parent="1" source="93wJ_rC8UFQtwwrExq1X-278" target="93wJ_rC8UFQtwwrExq1X-266">
          <mxGeometry relative="1" as="geometry">
            <mxPoint x="-1158" y="-81" as="targetPoint" />
          </mxGeometry>
        </mxCell>
        <mxCell id="93wJ_rC8UFQtwwrExq1X-282" value="совместный просмотр" style="ellipse;whiteSpace=wrap;html=1;" vertex="1" parent="1">
          <mxGeometry x="-707" y="-398" width="140" height="70" as="geometry" />
        </mxCell>
        <mxCell id="93wJ_rC8UFQtwwrExq1X-284" style="edgeStyle=none;curved=1;rounded=0;orthogonalLoop=1;jettySize=auto;html=1;entryX=0.5;entryY=0.5;entryDx=0;entryDy=0;entryPerimeter=0;fontSize=12;startSize=8;endSize=8;endArrow=none;endFill=0;" edge="1" parent="1" source="93wJ_rC8UFQtwwrExq1X-282" target="93wJ_rC8UFQtwwrExq1X-267">
          <mxGeometry relative="1" as="geometry">
            <mxPoint x="-912" y="-332" as="targetPoint" />
          </mxGeometry>
        </mxCell>
        <mxCell id="93wJ_rC8UFQtwwrExq1X-285" value="получить доступа к фильмам" style="ellipse;whiteSpace=wrap;html=1;" vertex="1" parent="1">
          <mxGeometry x="-489" y="-248" width="140" height="70" as="geometry" />
        </mxCell>
        <mxCell id="93wJ_rC8UFQtwwrExq1X-286" style="edgeStyle=none;curved=1;rounded=0;orthogonalLoop=1;jettySize=auto;html=1;entryX=0.5;entryY=0.5;entryDx=0;entryDy=0;entryPerimeter=0;fontSize=12;startSize=8;endSize=8;endArrow=none;endFill=0;" edge="1" parent="1" source="93wJ_rC8UFQtwwrExq1X-285" target="93wJ_rC8UFQtwwrExq1X-267">
          <mxGeometry relative="1" as="geometry">
            <mxPoint x="-951" y="-306" as="targetPoint" />
          </mxGeometry>
        </mxCell>
        <mxCell id="93wJ_rC8UFQtwwrExq1X-287" style="edgeStyle=none;curved=1;rounded=0;orthogonalLoop=1;jettySize=auto;html=1;entryX=0.5;entryY=0.5;entryDx=0;entryDy=0;entryPerimeter=0;fontSize=12;startSize=8;endSize=8;endArrow=none;endFill=0;" edge="1" parent="1" source="93wJ_rC8UFQtwwrExq1X-285" target="93wJ_rC8UFQtwwrExq1X-268">
          <mxGeometry relative="1" as="geometry">
            <mxPoint x="-948" y="-58" as="targetPoint" />
          </mxGeometry>
        </mxCell>
        <mxCell id="93wJ_rC8UFQtwwrExq1X-289" value="обновить каталог" style="ellipse;whiteSpace=wrap;html=1;" vertex="1" parent="1">
          <mxGeometry x="-297" y="-294" width="140" height="70" as="geometry" />
        </mxCell>
        <mxCell id="93wJ_rC8UFQtwwrExq1X-290" style="edgeStyle=none;curved=1;rounded=0;orthogonalLoop=1;jettySize=auto;html=1;entryX=0.5;entryY=0.5;entryDx=0;entryDy=0;entryPerimeter=0;fontSize=12;startSize=8;endSize=8;endArrow=none;endFill=0;" edge="1" parent="1" source="93wJ_rC8UFQtwwrExq1X-289" target="93wJ_rC8UFQtwwrExq1X-269">
          <mxGeometry relative="1" as="geometry">
            <mxPoint x="-941" y="-296" as="targetPoint" />
          </mxGeometry>
        </mxCell>
        <mxCell id="93wJ_rC8UFQtwwrExq1X-291" style="edgeStyle=none;curved=1;rounded=0;orthogonalLoop=1;jettySize=auto;html=1;entryX=0.5;entryY=0.5;entryDx=0;entryDy=0;entryPerimeter=0;fontSize=12;startSize=8;endSize=8;endArrow=none;endFill=0;" edge="1" parent="1" source="93wJ_rC8UFQtwwrExq1X-289" target="93wJ_rC8UFQtwwrExq1X-268">
          <mxGeometry relative="1" as="geometry">
            <mxPoint x="-938" y="-48" as="targetPoint" />
          </mxGeometry>
        </mxCell>
        <mxCell id="93wJ_rC8UFQtwwrExq1X-292" value="одиночный просмотр" style="ellipse;whiteSpace=wrap;html=1;" vertex="1" parent="1">
          <mxGeometry x="-556" y="-398" width="140" height="70" as="geometry" />
        </mxCell>
        <mxCell id="93wJ_rC8UFQtwwrExq1X-294" style="edgeStyle=none;curved=1;rounded=0;orthogonalLoop=1;jettySize=auto;html=1;entryX=0.5;entryY=0.5;entryDx=0;entryDy=0;entryPerimeter=0;fontSize=12;startSize=8;endSize=8;endArrow=none;endFill=0;" edge="1" parent="1" source="93wJ_rC8UFQtwwrExq1X-292" target="93wJ_rC8UFQtwwrExq1X-267">
          <mxGeometry relative="1" as="geometry">
            <mxPoint x="-928" y="-38" as="targetPoint" />
          </mxGeometry>
        </mxCell>
        <mxCell id="93wJ_rC8UFQtwwrExq1X-295" value="отметить просмотренное" style="ellipse;whiteSpace=wrap;html=1;" vertex="1" parent="1">
          <mxGeometry x="-641" y="-170" width="140" height="70" as="geometry" />
        </mxCell>
        <mxCell id="93wJ_rC8UFQtwwrExq1X-296" style="edgeStyle=none;curved=1;rounded=0;orthogonalLoop=1;jettySize=auto;html=1;entryX=0.5;entryY=0.5;entryDx=0;entryDy=0;entryPerimeter=0;fontSize=12;startSize=8;endSize=8;endArrow=none;endFill=0;" edge="1" parent="1" source="93wJ_rC8UFQtwwrExq1X-295" target="93wJ_rC8UFQtwwrExq1X-270">
          <mxGeometry relative="1" as="geometry">
            <mxPoint x="-921" y="-276" as="targetPoint" />
          </mxGeometry>
        </mxCell>
        <mxCell id="93wJ_rC8UFQtwwrExq1X-297" style="edgeStyle=none;curved=1;rounded=0;orthogonalLoop=1;jettySize=auto;html=1;entryX=0.5;entryY=0.5;entryDx=0;entryDy=0;entryPerimeter=0;fontSize=12;startSize=8;endSize=8;endArrow=none;endFill=0;" edge="1" parent="1" source="93wJ_rC8UFQtwwrExq1X-295" target="93wJ_rC8UFQtwwrExq1X-266">
          <mxGeometry relative="1" as="geometry">
            <mxPoint x="-918" y="-28" as="targetPoint" />
          </mxGeometry>
        </mxCell>
        <mxCell id="93wJ_rC8UFQtwwrExq1X-298" value="синхронизация" style="ellipse;whiteSpace=wrap;html=1;" vertex="1" parent="1">
          <mxGeometry x="-237" y="-120" width="140" height="70" as="geometry" />
        </mxCell>
        <mxCell id="93wJ_rC8UFQtwwrExq1X-299" style="edgeStyle=none;curved=1;rounded=0;orthogonalLoop=1;jettySize=auto;html=1;entryX=0.5;entryY=0.5;entryDx=0;entryDy=0;entryPerimeter=0;fontSize=12;startSize=8;endSize=8;endArrow=none;endFill=0;" edge="1" parent="1" source="93wJ_rC8UFQtwwrExq1X-298" target="93wJ_rC8UFQtwwrExq1X-268">
          <mxGeometry relative="1" as="geometry">
            <mxPoint x="-314" y="-242" as="targetPoint" />
          </mxGeometry>
        </mxCell>
        <mxCell id="93wJ_rC8UFQtwwrExq1X-300" style="edgeStyle=none;curved=1;rounded=0;orthogonalLoop=1;jettySize=auto;html=1;entryX=0.5;entryY=0.5;entryDx=0;entryDy=0;entryPerimeter=0;fontSize=12;startSize=8;endSize=8;endArrow=none;endFill=0;" edge="1" parent="1" source="93wJ_rC8UFQtwwrExq1X-298" target="93wJ_rC8UFQtwwrExq1X-270">
          <mxGeometry relative="1" as="geometry">
            <mxPoint x="-538" y="-96" as="targetPoint" />
          </mxGeometry>
        </mxCell>
        <mxCell id="93wJ_rC8UFQtwwrExq1X-302" value="получить рекомендацию" style="ellipse;whiteSpace=wrap;html=1;" vertex="1" parent="1">
          <mxGeometry x="-643" y="-92" width="140" height="70" as="geometry" />
        </mxCell>
        <mxCell id="93wJ_rC8UFQtwwrExq1X-303" style="edgeStyle=none;curved=1;rounded=0;orthogonalLoop=1;jettySize=auto;html=1;entryX=0.5;entryY=0.5;entryDx=0;entryDy=0;entryPerimeter=0;fontSize=12;startSize=8;endSize=8;endArrow=none;endFill=0;" edge="1" parent="1" source="93wJ_rC8UFQtwwrExq1X-302" target="93wJ_rC8UFQtwwrExq1X-270">
          <mxGeometry relative="1" as="geometry">
            <mxPoint x="-605" y="-241" as="targetPoint" />
          </mxGeometry>
        </mxCell>
        <mxCell id="93wJ_rC8UFQtwwrExq1X-304" style="edgeStyle=none;curved=1;rounded=0;orthogonalLoop=1;jettySize=auto;html=1;entryX=0.5;entryY=0.5;entryDx=0;entryDy=0;entryPerimeter=0;fontSize=12;startSize=8;endSize=8;endArrow=none;endFill=0;" edge="1" parent="1" source="93wJ_rC8UFQtwwrExq1X-302" target="93wJ_rC8UFQtwwrExq1X-266">
          <mxGeometry relative="1" as="geometry">
            <mxPoint x="-829" y="-95" as="targetPoint" />
          </mxGeometry>
        </mxCell>
        <mxCell id="93wJ_rC8UFQtwwrExq1X-305" value="оценить фильм" style="ellipse;whiteSpace=wrap;html=1;" vertex="1" parent="1">
          <mxGeometry x="-641" y="-14" width="140" height="70" as="geometry" />
        </mxCell>
        <mxCell id="93wJ_rC8UFQtwwrExq1X-306" style="edgeStyle=none;curved=1;rounded=0;orthogonalLoop=1;jettySize=auto;html=1;entryX=0.5;entryY=0.5;entryDx=0;entryDy=0;entryPerimeter=0;fontSize=12;startSize=8;endSize=8;endArrow=none;endFill=0;" edge="1" parent="1" source="93wJ_rC8UFQtwwrExq1X-305" target="93wJ_rC8UFQtwwrExq1X-270">
          <mxGeometry relative="1" as="geometry">
            <mxPoint x="-632" y="-147" as="targetPoint" />
          </mxGeometry>
        </mxCell>
        <mxCell id="93wJ_rC8UFQtwwrExq1X-307" style="edgeStyle=none;curved=1;rounded=0;orthogonalLoop=1;jettySize=auto;html=1;entryX=0.5;entryY=0.5;entryDx=0;entryDy=0;entryPerimeter=0;fontSize=12;startSize=8;endSize=8;endArrow=none;endFill=0;" edge="1" parent="1" source="93wJ_rC8UFQtwwrExq1X-305" target="93wJ_rC8UFQtwwrExq1X-266">
          <mxGeometry relative="1" as="geometry">
            <mxPoint x="-856" y="-1" as="targetPoint" />
          </mxGeometry>
        </mxCell>
        <mxCell id="93wJ_rC8UFQtwwrExq1X-308" value="обновить рекомендации" style="ellipse;whiteSpace=wrap;html=1;" vertex="1" parent="1">
          <mxGeometry x="-641" y="68" width="140" height="70" as="geometry" />
        </mxCell>
        <mxCell id="93wJ_rC8UFQtwwrExq1X-309" style="edgeStyle=none;curved=1;rounded=0;orthogonalLoop=1;jettySize=auto;html=1;entryX=0.5;entryY=0.5;entryDx=0;entryDy=0;entryPerimeter=0;fontSize=12;startSize=8;endSize=8;endArrow=none;endFill=0;" edge="1" parent="1" source="93wJ_rC8UFQtwwrExq1X-308" target="93wJ_rC8UFQtwwrExq1X-270">
          <mxGeometry relative="1" as="geometry">
            <mxPoint x="-665" y="-39" as="targetPoint" />
          </mxGeometry>
        </mxCell>
        <mxCell id="93wJ_rC8UFQtwwrExq1X-310" style="edgeStyle=none;curved=1;rounded=0;orthogonalLoop=1;jettySize=auto;html=1;entryX=0.5;entryY=0.5;entryDx=0;entryDy=0;entryPerimeter=0;fontSize=12;startSize=8;endSize=8;endArrow=none;endFill=0;" edge="1" parent="1" source="93wJ_rC8UFQtwwrExq1X-308" target="93wJ_rC8UFQtwwrExq1X-266">
          <mxGeometry relative="1" as="geometry">
            <mxPoint x="-889" y="107" as="targetPoint" />
          </mxGeometry>
        </mxCell>
        <mxCell id="93wJ_rC8UFQtwwrExq1X-311" value="удалить профиль" style="ellipse;whiteSpace=wrap;html=1;" vertex="1" parent="1">
          <mxGeometry x="-1016" y="68" width="140" height="70" as="geometry" />
        </mxCell>
        <mxCell id="93wJ_rC8UFQtwwrExq1X-312" style="edgeStyle=none;curved=1;rounded=0;orthogonalLoop=1;jettySize=auto;html=1;entryX=0.5;entryY=0.5;entryDx=0;entryDy=0;entryPerimeter=0;fontSize=12;startSize=8;endSize=8;endArrow=none;endFill=0;" edge="1" parent="1" source="93wJ_rC8UFQtwwrExq1X-311" target="93wJ_rC8UFQtwwrExq1X-266">
          <mxGeometry relative="1" as="geometry">
            <mxPoint x="-982" y="-27" as="targetPoint" />
          </mxGeometry>
        </mxCell>
        <mxCell id="93wJ_rC8UFQtwwrExq1X-314" value="изменить настройки" style="ellipse;whiteSpace=wrap;html=1;" vertex="1" parent="1">
          <mxGeometry x="-1100" y="-120" width="140" height="70" as="geometry" />
        </mxCell>
        <mxCell id="93wJ_rC8UFQtwwrExq1X-315" style="edgeStyle=none;curved=1;rounded=0;orthogonalLoop=1;jettySize=auto;html=1;fontSize=12;startSize=8;endSize=8;endArrow=none;endFill=0;entryX=0.5;entryY=0.5;entryDx=0;entryDy=0;entryPerimeter=0;" edge="1" parent="1" source="93wJ_rC8UFQtwwrExq1X-314" target="93wJ_rC8UFQtwwrExq1X-266">
          <mxGeometry relative="1" as="geometry">
            <mxPoint x="-990" y="-100" as="targetPoint" />
          </mxGeometry>
        </mxCell>
        <mxCell id="93wJ_rC8UFQtwwrExq1X-316" value="добавить профиль" style="ellipse;whiteSpace=wrap;html=1;" vertex="1" parent="1">
          <mxGeometry x="-1074" y="-14" width="140" height="70" as="geometry" />
        </mxCell>
        <mxCell id="93wJ_rC8UFQtwwrExq1X-317" style="edgeStyle=none;curved=1;rounded=0;orthogonalLoop=1;jettySize=auto;html=1;entryX=0.5;entryY=0.5;entryDx=0;entryDy=0;entryPerimeter=0;fontSize=12;startSize=8;endSize=8;endArrow=none;endFill=0;" edge="1" parent="1" source="93wJ_rC8UFQtwwrExq1X-316" target="93wJ_rC8UFQtwwrExq1X-266">
          <mxGeometry relative="1" as="geometry">
            <mxPoint x="-968" y="-78" as="targetPoint" />
          </mxGeometry>
        </mxCell>
      </root>
    </mxGraphModel>
  </diagram>
</mxfile>
